# Blender v3.3.1 OBJ File: ''
# www.blender.org
mtllib head_1.mtl
o h_visor_1
v 2.578125 4.046875 -3.359374
v 4.203125 6.437500 -1.999999
v 5.328125 1.921875 -2.156250
v 6.421875 2.843750 -0.812500
v 6.375000 4.656250 0.093751
v 6.453125 2.859375 0.890625
v 4.171875 6.437500 1.906251
v 5.281250 1.937500 2.109375
v 2.500000 4.046875 3.218751
v 4.171875 6.437500 1.906251
v 5.343750 6.343750 0.093751
v 4.203125 6.437500 -1.999999
vt 0.882500 0.452300
vt 0.710200 1.001700
vt 0.726000 0.005000
vt 0.583300 0.205400
vt 0.486500 0.602700
vt 0.399800 0.205600
vt 0.284000 1.002000
vt 0.270000 0.005000
vt 0.083700 0.448400
vt 0.290000 0.995100
vt 0.483000 0.974500
vt 0.708900 0.995100
vn 0.4926 0.1524 -0.8568
vn 0.6252 0.2041 -0.7533
vn 0.6198 0.1808 -0.7636
vn 0.8614 0.1822 -0.4742
vn 0.9359 0.3511 0.0287
vn 0.8476 0.1787 0.4997
vn 0.5823 0.2021 0.7875
vn 0.5708 0.1769 0.8018
vn 0.4646 0.1539 0.8721
vn 0.7556 0.4617 0.4646
vn 0.8526 0.5211 0.0387
vn 0.7806 0.4770 -0.4039
usemtl Main.001
s 1
f 1/1/1 2/2/2 3/3/3
f 2/2/2 4/4/4 3/3/3
f 2/2/2 5/5/5 4/4/4
f 5/5/5 6/6/6 4/4/4
f 5/5/5 7/7/7 6/6/6
f 7/7/7 8/8/8 6/6/6
f 7/7/7 9/9/9 8/8/8
f 10/10/10 5/5/5 11/11/11
f 5/5/5 12/12/12 11/11/11
o h_helmet_1
v 5.515625 -1.109375 0.046875
v 5.531250 -1.109375 -1.703125
v 6.781250 -0.343750 0.046875
v 0.015625 9.671875 -1.546873
v 4.875000 9.453125 -0.718748
v 4.234375 6.828125 -2.796874
v 4.843750 9.453125 0.765627
v 5.625000 6.828125 0.031251
v 4.875000 9.453125 0.031252
v 4.171875 6.828125 2.859376
v 5.343750 6.343750 0.093751
v 5.625000 6.828125 0.031251
v 5.343750 6.343750 0.093751
v 4.171875 6.828125 2.859376
v 4.171875 6.437500 1.906251
v 5.328125 1.921875 -2.156250
v 6.421875 2.843750 -0.812500
v 5.468750 1.343750 -2.953125
v 4.203125 6.437500 -1.999999
v 4.234375 6.828125 -2.796874
v 5.343750 6.343750 0.093751
v 5.421875 1.359375 3.046875
v 6.453125 2.859375 0.890625
v 5.281250 1.937500 2.109375
v 4.843750 9.453125 0.765627
v 5.343750 6.343750 0.093751
v 4.234375 6.828125 -2.796874
v 5.484375 -1.109375 1.812500
v 5.515625 -1.109375 0.046875
v 6.781250 -0.343750 0.046875
v 0.015625 9.671875 -0.015623
v -3.515625 7.171875 -0.062499
v 0.000000 9.671875 1.515627
v -3.546875 7.171875 2.421876
v -5.125000 4.406250 -0.078124
v -5.156250 4.406250 2.406251
v -3.656250 1.921875 -0.046875
v -3.671875 1.921875 2.421875
v 4.843750 9.453125 0.765627
v 0.000000 9.671875 1.515627
v 0.562500 5.843749 4.453126
v -3.546875 7.171875 2.421876
v -5.156250 4.406250 2.406251
v 6.453125 2.843750 0.046875
v 7.312500 1.859375 0.046875
v 6.421875 2.843750 -0.812500
v 7.312500 1.843750 -0.765625
v 5.531250 -1.109375 -1.703125
v 2.562500 3.734376 -4.515625
v 1.375000 2.718751 -5.375000
v 0.640625 5.828126 -4.484374
v -5.093750 4.406250 -2.546874
v -3.625000 1.937500 -2.515625
v 2.609375 -0.906250 -2.453125
v 5.531250 -1.109375 -1.703125
v 5.468750 1.343750 -2.953125
v 2.562500 3.734376 -4.515625
v 2.734375 5.546875 3.953126
v 2.468750 3.749999 4.531250
v 1.281250 2.734374 5.375000
v 2.562500 3.734376 -4.515625
v 0.015625 9.671875 -1.546873
v -3.515625 7.171875 -2.531249
v -3.656250 1.921875 -0.046875
v 5.515625 -1.109375 0.046875
v -3.671875 1.921875 2.421875
v 2.562500 -0.890625 2.500000
v 5.484375 -1.109375 1.812500
v 2.468750 3.749999 4.531250
v 5.421875 1.359375 3.046875
v 5.484375 -1.109375 1.812500
v 2.562500 -0.890625 2.500000
v -3.671875 1.921875 2.421875
v 4.171875 6.828125 2.859376
v 2.734375 5.546875 3.953126
v 4.171875 6.437500 1.906251
v 2.500000 4.046875 3.218751
v 2.468750 3.749999 4.531250
v 0.015625 9.671875 -0.015623
v 0.015625 9.671875 -1.546873
v -3.515625 7.171875 -0.062499
v -3.515625 7.171875 -2.531249
v -5.125000 4.406250 -0.078124
v -5.093750 4.406250 -2.546874
v -3.656250 1.921875 -0.046875
v -3.625000 1.937500 -2.515625
v -3.656250 1.921875 -0.046875
v -3.625000 1.937500 -2.515625
v 5.515625 -1.109375 0.046875
v 2.609375 -0.906250 -2.453125
v 5.531250 -1.109375 -1.703125
v 0.015625 9.671875 -1.546873
v 0.015625 9.671875 -0.015623
v 4.875000 9.453125 -0.718748
v 4.875000 9.453125 0.031252
v 4.843750 9.453125 0.765627
v 0.000000 9.671875 1.515627
v 5.531250 -1.109375 -1.703125
v 7.312500 1.843750 -0.765625
v 6.421875 2.843750 -0.812500
v 5.484375 -1.109375 1.812500
v 7.296875 1.859375 0.890625
v 6.453125 2.859375 0.890625
v 5.625000 6.828125 0.031251
v 4.875000 9.453125 -0.718748
v 4.234375 6.828125 -2.796874
v 6.453125 2.843750 0.046875
v 6.453125 2.859375 0.890625
v 7.312500 1.859375 0.046875
v 7.296875 1.859375 0.890625
v 5.484375 -1.109375 1.812500
v 5.281250 1.937500 2.109375
v 2.500000 4.046875 3.218751
v 5.421875 1.359375 3.046875
v 2.468750 3.749999 4.531250
v 5.328125 1.921875 -2.156250
v 5.468750 1.343750 -2.953125
v 2.578125 4.046875 -3.359374
v 2.562500 3.734376 -4.515625
v 2.578125 4.046875 -3.359374
v 4.234375 6.828125 -2.796874
v 2.562500 3.734376 -4.515625
vt 0.407400 0.152500
vt 0.338800 0.152500
vt 0.436200 0.184500
vt 0.202900 0.436600
vt 0.361800 0.432900
vt 0.306900 0.360500
vt 0.362000 0.434000
vt 0.391100 0.364200
vt 0.390500 0.434000
vt 0.308300 0.361700
vt 0.379900 0.346400
vt 0.390500 0.364300
vt 0.379900 0.345300
vt 0.306900 0.360500
vt 0.332800 0.347300
vt 0.364400 0.268900
vt 0.403800 0.268000
vt 0.362800 0.247100
vt 0.330900 0.347300
vt 0.305900 0.360500
vt 0.380700 0.345300
vt 0.360300 0.247100
vt 0.401100 0.267600
vt 0.365000 0.268900
vt 0.361800 0.428700
vt 0.379800 0.346400
vt 0.310600 0.359400
vt 0.338100 0.152500
vt 0.406700 0.152500
vt 0.435500 0.184500
vt 0.061800 0.179000
vt 0.061800 0.117400
vt 0.016900 0.179000
vt 0.007400 0.117500
vt 0.061800 0.059300
vt 0.007400 0.059300
vt 0.061800 0.007300
vt 0.007400 0.007200
vt 0.360500 0.432900
vt 0.203100 0.438900
vt 0.217700 0.341300
vt 0.113100 0.370500
vt 0.078800 0.309800
vt 0.436000 0.268700
vt 0.436200 0.242600
vt 0.404500 0.268500
vt 0.407500 0.241100
vt 0.388500 0.184500
vt 0.266100 0.288900
vt 0.236000 0.263900
vt 0.217700 0.341300
vt 0.078800 0.309800
vt 0.109800 0.244100
vt 0.261300 0.195900
vt 0.339600 0.153100
vt 0.339700 0.229600
vt 0.292700 0.284300
vt 0.272600 0.333600
vt 0.266100 0.288900
vt 0.236000 0.263900
vt 0.272600 0.333600
vt 0.203100 0.438900
vt 0.113100 0.370500
vt 0.172400 0.211300
vt 0.236000 0.174100
vt 0.160300 0.190600
vt 0.223900 0.153400
vt 0.257000 0.142000
vt 0.292700 0.284300
vt 0.339700 0.229600
vt 0.322300 0.191600
vt 0.261300 0.195900
vt 0.109800 0.244100
vt 0.306900 0.360000
vt 0.273000 0.333600
vt 0.308100 0.324500
vt 0.304600 0.299500
vt 0.265600 0.289300
vt 0.061700 0.179000
vt 0.016900 0.179000
vt 0.061700 0.117700
vt 0.007500 0.117800
vt 0.061700 0.060100
vt 0.007500 0.060100
vt 0.061700 0.008500
vt 0.007500 0.008400
vt 0.172200 0.211000
vt 0.160100 0.190300
vt 0.235800 0.173800
vt 0.223700 0.153100
vt 0.256800 0.141600
vt 0.009900 0.512900
vt 0.009600 0.473500
vt 0.134000 0.491000
vt 0.133900 0.471100
vt 0.135700 0.451300
vt 0.009200 0.432100
vt 0.389600 0.186800
vt 0.407100 0.241300
vt 0.404400 0.268600
vt 0.389600 0.186800
vt 0.407100 0.241300
vt 0.404600 0.268600
vt 0.391400 0.364200
vt 0.362100 0.434000
vt 0.307100 0.359900
vt 0.435700 0.268700
vt 0.404500 0.268500
vt 0.435500 0.242600
vt 0.407400 0.241100
vt 0.387800 0.184500
vt 0.354600 0.248800
vt 0.310500 0.294500
vt 0.339400 0.230600
vt 0.290300 0.283000
vt 0.354900 0.249800
vt 0.340100 0.230800
vt 0.309700 0.295200
vt 0.290800 0.283300
vt 0.308700 0.324500
vt 0.305200 0.360000
vt 0.274100 0.333600
vn 0.5176 -0.8556 0.0046
vn 0.8057 -0.5273 -0.2700
vn 0.1615 0.5880 -0.7926
vn 0.2150 0.5372 -0.8156
vn 0.9607 0.2745 0.0409
vn 0.9085 0.1627 0.3848
vn 0.9613 0.2747 0.0205
vn 0.8886 0.0451 0.4566
vn 0.8088 -0.4160 0.4156
vn 0.8638 -0.5036 -0.0160
vn 0.4561 -0.8235 0.3375
vn 0.2560 0.4429 0.8592
vn 0.0323 0.8117 -0.5832
vn 0.6954 -0.6557 -0.2941
vn 0.5695 -0.7467 -0.3437
vn -0.1055 0.8393 0.5334
vn 0.8812 0.1356 0.4528
vn 0.7769 -0.5004 -0.3820
vn 0.5176 -0.8556 0.0092
vn 0.8018 -0.5258 0.2839
vn -0.5778 0.8162 -0.0059
vn -0.7376 0.6751 -0.0091
vn -0.5776 0.8163 -0.0063
vn -0.7484 0.6631 -0.0094
vn -0.9999 -0.0024 -0.0126
vn -0.9999 -0.0046 -0.0112
vn -0.8595 -0.5111 -0.0079
vn -0.8584 -0.5129 -0.0054
vn 0.1493 0.5929 0.7913
vn 0.0097 0.6035 0.7973
vn -0.0543 0.4024 0.9138
vn -0.3167 0.3614 0.8770
vn -0.4204 0.0172 0.9072
vn 0.7530 0.6574 -0.0274
vn 0.9691 0.2465 -0.0078
vn 0.7509 0.6600 -0.0222
vn 0.9797 0.1722 -0.1023
vn 0.8263 -0.3612 -0.4322
vn 0.3488 0.3333 -0.8759
vn 0.0188 -0.1755 -0.9843
vn -0.0248 0.3990 -0.9166
vn -0.4033 0.0131 -0.9150
vn -0.4094 -0.3932 -0.8233
vn 0.0145 -0.6245 -0.7809
vn 0.2615 -0.5051 -0.8225
vn 0.5670 -0.2455 -0.7863
vn 0.5300 0.0935 -0.8428
vn 0.2563 0.3737 0.8914
vn 0.3046 0.3109 0.9003
vn 0.0013 -0.1696 0.9855
vn 0.3298 0.3160 -0.8896
vn -0.0239 0.6046 -0.7962
vn -0.2989 0.3601 -0.8837
vn -0.3138 -0.9495 -0.0020
vn -0.2116 -0.9698 -0.1217
vn -0.3282 -0.9422 -0.0670
vn -0.3334 -0.8859 -0.3224
vn -0.0750 -0.9972 -0.0013
vn 0.5139 0.1063 0.8512
vn 0.5533 -0.2454 0.7960
vn 0.2440 -0.5022 0.8296
vn -0.0026 -0.6219 0.7831
vn -0.4241 -0.3882 0.8182
vn 0.7439 -0.6183 0.2534
vn 0.8925 -0.3396 0.2968
vn 0.7874 -0.5237 0.3252
vn 0.9536 -0.2388 0.1833
vn 0.9887 -0.1495 -0.0103
vn -0.5778 0.8162 0.0000
vn -0.7371 0.6757 0.0000
vn -0.7505 0.6609 -0.0025
vn -0.9999 -0.0070 -0.0100
vn -0.9999 -0.0073 -0.0135
vn -0.8599 -0.5103 -0.0127
vn -0.8592 -0.5114 -0.0141
vn -0.3137 -0.9495 -0.0100
vn -0.3302 -0.9422 0.0575
vn -0.2112 -0.9701 0.1193
vn -0.3417 -0.8816 0.3256
vn -0.0692 -0.9976 -0.0006
vn 0.0450 0.9990 0.0000
vn 0.0451 0.9990 0.0003
vn 0.0450 0.9990 0.0009
vn 0.0450 0.9990 0.0017
vn 0.0452 0.9990 0.0005
vn 0.7650 -0.2768 -0.5815
vn 0.7253 0.2031 -0.6578
vn 0.5996 0.5050 -0.6208
vn 0.7559 -0.2774 0.5930
vn 0.7143 0.2058 0.6689
vn 0.5927 0.5001 0.6314
vn 0.9178 0.1582 -0.3640
vn 0.9557 0.2159 -0.2001
vn 0.8899 0.1292 -0.4376
vn 0.7533 0.6576 -0.0122
vn 0.7574 0.6530 -0.0025
vn 0.9727 0.2318 0.0127
vn 0.9801 0.1606 0.1164
vn 0.8192 -0.3621 0.4447
vn 0.6504 0.6863 0.3256
vn 0.6694 0.7148 0.2023
vn 0.6565 0.6950 0.2931
vn 0.6718 0.7189 0.1786
vn 0.6639 0.6561 -0.3588
vn 0.6697 0.6670 -0.3265
vn 0.6824 0.6964 -0.2220
vn 0.6841 0.7017 -0.1989
vn 0.8473 -0.5231 0.0916
vn 0.8629 -0.4854 -0.1407
vn 0.8399 -0.5267 0.1310
usemtl Main
s 1
f 13/13/13 14/14/13 15/15/14
f 16/16/15 17/17/15 18/18/16
f 19/19/17 20/20/18 21/21/19
f 22/22/20 23/23/21 24/24/22
f 25/25/23 26/26/24 27/27/23
f 28/28/25 29/29/25 30/30/25
f 31/31/26 32/32/27 33/33/27
f 34/34/28 35/35/28 36/36/28
f 37/37/29 22/22/20 20/20/18
f 24/24/22 38/38/30 39/39/30
f 40/40/31 41/41/31 42/42/32
f 43/43/33 44/44/34 45/45/35
f 44/44/34 46/46/36 45/45/35
f 44/44/34 47/47/37 46/46/36
f 47/47/37 48/48/38 46/46/36
f 47/47/37 49/49/39 48/48/38
f 49/49/39 50/50/40 48/48/38
f 51/51/41 52/52/42 26/26/24
f 52/52/42 53/53/43 26/26/24
f 52/52/42 54/54/44 53/53/43
f 54/54/44 55/55/45 53/53/43
f 56/56/46 57/57/47 58/58/48
f 57/57/47 59/59/49 58/58/48
f 57/57/47 15/15/14 59/59/49
f 15/15/14 60/60/50 59/59/49
f 61/61/51 62/62/52 63/63/53
f 62/62/52 64/64/54 63/63/53
f 62/62/52 65/65/55 64/64/54
f 65/65/55 62/62/52 66/66/56
f 62/62/52 67/67/57 66/66/56
f 62/62/52 68/68/58 67/67/57
f 62/62/52 69/69/59 68/68/58
f 26/26/24 53/53/43 70/70/60
f 53/53/43 71/71/61 70/70/60
f 53/53/43 72/72/62 71/71/61
f 73/73/63 63/63/53 18/18/16
f 63/63/53 74/74/64 18/18/16
f 63/63/53 75/75/65 74/74/64
f 63/63/53 64/64/54 75/75/65
f 76/76/66 77/77/67 78/78/68
f 77/77/67 79/79/69 78/78/68
f 77/77/67 80/80/70 79/79/69
f 81/81/71 72/72/62 82/82/72
f 72/72/62 83/83/73 82/82/72
f 72/72/62 84/84/74 83/83/73
f 84/84/74 72/72/62 85/85/75
f 72/72/62 55/55/45 85/85/75
f 72/72/62 53/53/43 55/55/45
f 86/86/76 87/87/77 88/88/78
f 87/87/77 89/89/79 88/88/78
f 87/87/77 90/90/80 89/89/79
f 91/91/81 92/92/81 93/93/82
f 92/92/81 94/94/83 93/93/82
f 93/93/82 94/94/83 95/95/84
f 94/94/83 96/96/85 95/95/84
f 95/95/84 96/96/85 97/97/86
f 96/96/85 98/98/87 97/97/86
f 99/99/88 100/100/89 101/101/90
f 100/100/89 102/102/91 101/101/90
f 102/102/91 103/103/92 101/101/90
f 104/104/93 105/105/94 106/106/93
f 105/105/94 107/107/95 106/106/93
f 105/105/94 108/108/96 107/107/95
f 105/105/94 109/109/97 108/108/96
f 110/110/98 68/68/58 111/111/99
f 68/68/58 112/112/100 111/111/99
f 113/113/101 114/114/102 82/82/72
f 114/114/102 115/115/103 82/82/72
f 21/21/19 116/116/104 117/117/105
f 116/116/104 118/118/106 117/117/105
f 119/119/107 120/120/108 121/121/109
f 120/120/108 122/122/110 121/121/109
f 121/121/109 122/122/110 42/42/32
f 122/122/110 123/123/111 42/42/32
f 124/124/112 125/125/113 126/126/114
f 125/125/113 127/127/115 126/126/114
f 128/128/116 129/129/117 130/130/118
f 129/129/117 131/131/119 130/130/118
f 31/31/26 132/132/120 133/133/121
f 132/132/120 134/134/122 133/133/121
