# Blender v3.3.1 OBJ File: ''
# www.blender.org
mtllib head_2.mtl
o h_visor_2
v 5.296875 6.296875 0.312501
v 4.156250 6.843750 2.843751
v 6.281250 2.796875 0.890625
v 5.421875 1.359375 3.046875
v 2.500000 3.749999 4.531250
v 2.578125 3.718751 -4.515625
v 4.203125 6.828125 -2.796874
v 5.468750 1.343750 -2.953125
v 6.281250 2.796875 0.890625
vt 0.486500 0.602700
vt 0.284000 1.002000
vt 0.399800 0.205600
vt 0.270000 0.005000
vt 0.083700 0.448400
vt 0.882500 0.452300
vt 0.710200 1.001700
vt 0.726000 0.005000
vt 0.583300 0.205400
vn 0.9626 0.2710 0.0014
vn 0.7819 0.2371 0.5766
vn 0.8641 0.2403 0.4423
vn 0.7436 0.1953 0.6395
vn 0.5461 0.1565 0.8230
vn 0.5644 0.1534 -0.8111
vn 0.8380 0.2050 -0.5057
vn 0.8352 0.2073 -0.5094
vn 0.9329 0.2204 -0.2849
usemtl Main.001
s 1
f 1/1/1 2/2/2 3/3/3
f 2/2/2 4/4/4 3/3/3
f 2/2/2 5/5/5 4/4/4
f 6/6/6 7/7/7 8/8/8
f 7/7/7 9/9/9 8/8/8
f 7/7/7 1/1/1 9/9/9
o h_helmet_2
v 4.843750 9.453125 0.765627
v 4.875000 9.453125 -0.718748
v 0.015625 9.671875 -0.015623
v 4.843750 9.453125 0.765627
v 5.343750 6.343750 0.093751
v 4.875000 9.453125 -0.718748
v 7.312500 1.859375 0.046875
v 5.468750 1.343750 -2.953125
v 6.453125 2.843750 0.046875
v 4.843750 9.453125 0.765627
v 4.171875 6.828125 2.859376
v 5.343750 6.343750 0.093751
v 4.234375 6.828125 -2.796874
v 4.875000 9.453125 -0.718748
v -3.671875 1.921875 2.421875
v -5.125000 4.406250 -0.078124
v -3.625000 1.937500 -2.515625
v 5.484375 -1.109375 1.812500
v 5.531250 -1.109375 -1.703125
v 6.781250 -0.343750 0.046875
v 4.171875 6.828125 2.859376
v 0.562500 5.843749 4.453126
v 2.468750 3.749999 4.531250
v 1.281250 2.734374 5.375000
v -5.125000 4.406250 -0.078124
v -3.671875 1.921875 2.421875
v -3.625000 1.937500 -2.515625
v 2.609375 -0.906250 -2.453125
v -3.671875 1.921875 2.421875
v 2.562500 -0.890625 2.500000
v 5.531250 -1.109375 -1.703125
v 5.484375 -1.109375 1.812500
v 2.562500 3.734376 -4.515625
v 1.375000 2.718751 -5.375000
v 0.640625 5.828126 -4.484374
v -3.625000 1.937500 -2.515625
v 2.609375 -0.906250 -2.453125
v 5.531250 -1.109375 -1.703125
v 2.562500 3.734376 -4.515625
v 2.562500 3.734376 -4.515625
v 4.234375 6.828125 -2.796874
v 4.875000 9.453125 -0.718748
v 0.015625 9.671875 -0.015623
v 2.468750 3.749999 4.531250
v 5.421875 1.359375 3.046875
v 5.484375 -1.109375 1.812500
v 2.562500 -0.890625 2.500000
v 6.453125 2.843750 0.046875
v 5.484375 -1.109375 1.812500
v 5.531250 -1.109375 -1.703125
v 6.781250 -0.343750 0.046875
v 7.312500 1.859375 0.046875
v 4.171875 6.828125 2.859376
v 4.843750 9.453125 0.765627
v 0.015625 9.671875 -0.015623
v -5.125000 4.406250 -0.078124
vt 0.135700 0.451300
vt 0.133900 0.471100
vt 0.009600 0.473500
vt 0.362000 0.434000
vt 0.391100 0.364200
vt 0.390500 0.434000
vt 0.431500 0.242400
vt 0.339700 0.229600
vt 0.429900 0.271900
vt 0.361800 0.428700
vt 0.308300 0.361700
vt 0.391400 0.364200
vt 0.307100 0.359900
vt 0.362100 0.434000
vt 0.061700 0.008500
vt 0.007500 0.060100
vt 0.007500 0.008400
vt 0.338100 0.152500
vt 0.428900 0.147000
vt 0.431100 0.182300
vt 0.272600 0.333600
vt 0.217700 0.341300
vt 0.279400 0.292300
vt 0.236000 0.263900
vt 0.092100 0.343100
vt 0.109800 0.244100
vt 0.160100 0.190300
vt 0.223700 0.153100
vt 0.172200 0.211000
vt 0.223900 0.153400
vt 0.236000 0.174100
vt 0.257000 0.142000
vt 0.279400 0.292300
vt 0.236000 0.263900
vt 0.217700 0.341300
vt 0.109800 0.244100
vt 0.261300 0.195900
vt 0.339600 0.153100
vt 0.279400 0.293200
vt 0.272600 0.333600
vt 0.306900 0.360500
vt 0.361800 0.432900
vt 0.202900 0.436600
vt 0.279400 0.293200
vt 0.339700 0.229600
vt 0.338900 0.151700
vt 0.261300 0.195900
vt 0.429000 0.271900
vt 0.337900 0.152300
vt 0.336300 0.150200
vt 0.431800 0.182300
vt 0.431900 0.242200
vt 0.306900 0.360500
vt 0.360500 0.432900
vt 0.203100 0.438900
vt 0.089800 0.343800
vn 0.0451 0.9990 0.0009
vn 0.9878 0.1543 0.0208
vn 0.9552 0.0929 0.2809
vn 0.8957 0.3941 0.2060
vn 0.6022 -0.2417 -0.7609
vn 0.6528 0.5699 -0.4991
vn 0.9228 0.0664 0.3794
vn 0.9352 0.0494 -0.3506
vn -0.8588 -0.5122 -0.0098
vn 0.5153 -0.8570 0.0069
vn 0.7654 -0.5670 0.3044
vn 0.3099 0.3156 0.8968
vn -0.2405 0.4368 0.8668
vn 0.3241 0.3282 0.8873
vn -0.0630 -0.1400 0.9881
vn -0.8812 0.4727 -0.0093
vn -0.5254 0.1802 0.8316
vn -0.4149 -0.9098 -0.0068
vn -0.2596 -0.9657 -0.0007
vn -0.4135 -0.9105 -0.0045
vn -0.2598 -0.9657 -0.0003
vn -0.0716 -0.9974 0.0013
vn -0.0749 -0.9972 -0.0010
vn 0.3488 0.3333 -0.8759
vn -0.0450 -0.1461 -0.9882
vn -0.2228 0.4348 -0.8725
vn -0.5093 0.1758 -0.8425
vn 0.0145 -0.6245 -0.7809
vn 0.2615 -0.5051 -0.8225
vn 0.5300 0.0935 -0.8428
vn 0.3298 0.3160 -0.8896
vn 0.2426 0.5152 -0.8220
vn 0.0294 0.7034 -0.7102
vn -0.0610 0.7525 -0.6558
vn 0.5139 0.1063 0.8512
vn 0.5901 -0.2390 0.7711
vn 0.2440 -0.5022 0.8296
vn -0.0026 -0.6219 0.7831
vn 0.6504 0.5678 0.5045
vn 0.8292 -0.2330 0.5080
vn 0.8367 -0.2316 -0.4963
vn 0.8441 -0.2159 -0.4907
vn 0.8492 -0.2048 -0.4867
vn 0.1904 0.5819 0.7907
vn 0.0152 0.7057 0.7083
vn -0.5072 0.8091 0.2967
vn -0.7155 0.6986 -0.0087
usemtl Main
s 1
f 10/10/10 11/11/10 12/12/10
f 13/13/11 14/14/12 15/15/11
f 16/16/13 17/17/14 18/18/15
f 19/19/16 20/20/16 14/14/12
f 21/21/17 22/22/17 23/23/17
f 24/24/18 25/25/18 26/26/18
f 27/27/19 28/28/19 29/29/20
f 30/30/21 31/31/22 32/32/23
f 31/31/22 33/33/24 32/32/23
f 31/31/22 34/34/25 33/33/24
f 34/34/25 35/35/26 33/33/24
f 36/36/27 37/37/28 38/38/29
f 37/37/28 39/39/30 38/38/29
f 37/37/28 40/40/31 39/39/30
f 40/40/31 41/41/32 39/39/30
f 42/42/33 43/43/34 44/44/35
f 43/43/34 34/34/25 44/44/35
f 43/43/34 45/45/36 34/34/25
f 45/45/36 43/43/34 46/46/37
f 43/43/34 47/47/38 46/46/37
f 43/43/34 17/17/14 47/47/38
f 43/43/34 48/48/39 17/17/14
f 49/49/40 44/44/35 50/50/41
f 44/44/35 51/51/42 50/50/41
f 44/44/35 52/52/43 51/51/42
f 53/53/44 33/33/24 54/54/45
f 33/33/24 55/55/46 54/54/45
f 33/33/24 56/56/47 55/55/46
f 33/33/24 35/35/26 56/56/47
f 57/57/48 54/54/45 16/16/13
f 54/54/45 29/29/20 16/16/13
f 54/54/45 58/58/49 29/29/20
f 59/59/50 17/17/14 60/60/51
f 17/17/14 61/61/52 60/60/51
f 62/62/53 63/63/54 31/31/22
f 63/63/54 64/64/55 31/31/22
f 44/44/35 65/65/56 64/64/55
f 65/65/56 31/31/22 64/64/55
