# Blender 4.1.0 Alpha
# www.blender.org
mtllib Wolfen2.mtl
o Wolfen2_0_0_node
v 0.000000 0.000000 0.494990
v 0.044985 0.164962 -0.059962
v -0.044985 0.164962 -0.059962
v -0.044985 0.164962 -0.059962
v 0.044985 0.164962 -0.059962
v -0.059962 0.299969 -0.314998
v 0.059962 0.299969 -0.314998
v -0.044985 -0.209999 -0.404968
v 0.044985 -0.209999 -0.404968
v 0.000000 -0.209999 -0.584960
v 0.000000 0.000000 0.494990
v 0.254984 -0.000000 -0.404968
v 0.119977 0.209999 -0.314998
v 0.044985 0.164962 -0.059962
v 0.059962 0.299969 -0.314998
v -0.119977 0.209999 -0.314998
v -0.254984 -0.000000 -0.404968
v 0.000000 0.000000 0.494990
v -0.119977 0.209999 -0.314998
v -0.044985 0.164962 -0.059962
v -0.059962 0.299969 -0.314998
v 0.119977 0.209999 -0.314998
v 0.000000 0.000000 0.494990
v -0.254984 -0.000000 -0.404968
v 0.000000 -0.209999 -0.194969
v -0.044985 -0.209999 -0.404968
v 0.254984 -0.000000 -0.404968
v 0.000000 0.000000 0.494990
v 0.000000 -0.209999 -0.194969
v 0.044985 -0.209999 -0.404968
v 0.000000 0.149984 -1.574991
v 0.000000 0.149984 -1.574991
v 0.254984 -0.000000 -0.404968
v -0.254984 -0.000000 -0.404968
v 0.000000 0.149984 -1.574991
v 0.000000 0.149984 -1.574991
v -0.044985 -0.209999 -0.404968
v 0.000000 -0.209999 -0.584960
v 0.000000 -0.839996 -0.584960
v 0.000000 -0.209999 -0.584960
v 0.044985 -0.209999 -0.404968
v 0.000000 -0.839996 -0.584960
v 0.000000 -0.209999 -0.194969
v 0.000000 -0.209999 -0.194969
v -0.254984 -0.000000 -0.404968
v 0.254984 -0.000000 -0.404968
v -0.044985 -0.209999 -0.404968
v 0.044985 -0.209999 -0.404968
v -0.689959 -0.794958 0.539975
v -0.254984 -0.224977 -0.404968
v -0.254984 -0.179992 0.089970
v -1.139964 -0.000000 -0.869951
v -1.139964 -0.044985 -0.389990
v -1.709998 -0.000000 -0.254984
v -1.139964 -0.000000 -0.089970
v -0.569982 -0.074992 -0.344953
v -0.554952 0.000000 0.509968
v -1.139964 -0.044985 -0.389990
v -1.139964 -0.000000 -0.089970
v -0.299969 -0.179992 0.089970
v -0.554952 0.000000 0.509968
v -0.434975 -0.194969 -0.404968
v -0.734996 -0.794958 0.539975
v -0.299969 -0.179992 0.089970
v -0.434975 -0.194969 -0.404968
v -0.554952 -0.000000 -0.524997
v -0.254984 -0.000000 -0.989980
v -0.569982 -0.074992 -0.344953
v -0.299969 0.000000 1.199979
v -0.734996 -0.794958 0.539975
v -0.434975 -0.194969 -0.404968
v -0.689959 -0.794958 0.539975
v -0.254984 -0.224977 -0.404968
v -0.254984 -0.224977 -0.404968
v -0.254984 -0.179992 0.089970
v -0.254984 0.000000 1.199979
v -0.299969 -0.179992 0.089970
v -0.299969 0.000000 1.199979
v -0.689959 -0.794958 0.539975
v -0.254984 -0.179992 0.089970
v -0.734996 -0.794958 0.539975
v -0.299969 -0.179992 0.089970
v 0.254984 0.179992 0.089970
v 0.254984 -0.179992 0.089970
v 0.254984 0.000000 1.199979
v 0.689959 -0.794958 0.539975
v 0.254984 -0.179992 0.089970
v 0.254984 -0.224977 -0.404968
v 0.254984 0.224976 -0.404968
v 0.254984 -0.224977 -0.404968
v 0.254984 -0.000000 -0.989980
v 1.139964 -0.000000 -0.869951
v 1.709998 -0.000000 -0.254984
v 1.139964 -0.044985 -0.389990
v 1.139964 -0.000000 -0.089970
v 0.569982 -0.074992 -0.344953
v 1.139964 -0.044985 -0.389990
v 0.554952 0.000000 0.509968
v 1.139964 -0.000000 -0.089970
v 0.299969 -0.179992 0.089970
v 0.434975 -0.194969 -0.404968
v 0.554952 0.000000 0.509968
v 0.734996 -0.794958 0.539975
v 0.434975 -0.194969 -0.404968
v 0.299969 -0.179992 0.089970
v 0.254984 -0.000000 -0.989980
v 0.554952 -0.000000 -0.524997
v 0.569982 -0.074992 -0.344953
v 0.569982 -0.074992 -0.344953
v 0.554952 -0.000000 -0.524997
v 0.569982 0.074992 -0.344953
v 0.299969 0.000000 1.199979
v 0.734996 -0.794958 0.539975
v 0.689959 -0.794958 0.539975
v 0.434975 -0.194969 -0.404968
v 0.254984 -0.224977 -0.404968
v 0.254984 -0.224977 -0.404968
v 0.254984 -0.179992 0.089970
v 0.299969 -0.179992 0.089970
v 0.254984 0.000000 1.199979
v 0.299969 0.000000 1.199979
v 0.689959 -0.794958 0.539975
v 0.734996 -0.794958 0.539975
v 0.254984 -0.179992 0.089970
v 0.299969 -0.179992 0.089970
v 1.139964 -0.000000 -0.869951
v 1.139964 -0.044985 -0.389990
v 1.139964 0.044985 -0.389990
v 0.689959 0.794959 0.539975
v 0.254984 0.224976 -0.404968
v 0.254984 0.179992 0.089970
v 1.139964 -0.000000 -0.869951
v 1.139964 0.044985 -0.389990
v 1.709998 -0.000000 -0.254984
v 1.139964 -0.000000 -0.089970
v 0.569982 0.074992 -0.344953
v 0.554952 0.000000 0.509968
v 1.139964 0.044985 -0.389990
v 1.139964 -0.000000 -0.089970
v 0.299969 0.179992 0.089970
v 0.554952 0.000000 0.509968
v 0.434975 0.194969 -0.404968
v 0.734996 0.794959 0.539975
v 0.299969 0.179992 0.089970
v 0.434975 0.194969 -0.404968
v 0.554952 -0.000000 -0.524997
v 0.254984 -0.000000 -0.989980
v 0.569982 0.074992 -0.344953
v 0.299969 0.000000 1.199979
v 0.734996 0.794959 0.539975
v 0.434975 0.194969 -0.404968
v 0.689959 0.794959 0.539975
v 0.254984 0.224976 -0.404968
v 0.254984 0.224976 -0.404968
v 0.254984 0.179992 0.089970
v 0.254984 0.000000 1.199979
v 0.299969 0.179992 0.089970
v 0.299969 0.000000 1.199979
v 0.689959 0.794959 0.539975
v 0.254984 0.179992 0.089970
v 0.734996 0.794959 0.539975
v 0.299969 0.179992 0.089970
v -0.254984 -0.179992 0.089970
v -0.254984 0.179992 0.089970
v -0.254984 0.000000 1.199979
v -0.689959 0.794959 0.539975
v -0.254984 0.179992 0.089970
v -0.254984 0.224976 -0.404968
v -0.254984 -0.224977 -0.404968
v -0.254984 0.224976 -0.404968
v -0.254984 -0.000000 -0.989980
v -1.139964 -0.000000 -0.869951
v -1.709998 -0.000000 -0.254984
v -1.139964 0.044985 -0.389990
v -1.139964 -0.000000 -0.089970
v -0.569982 0.074992 -0.344953
v -1.139964 0.044985 -0.389990
v -0.554952 0.000000 0.509968
v -1.139964 -0.000000 -0.089970
v -0.299969 0.179992 0.089970
v -0.434975 0.194969 -0.404968
v -0.554952 0.000000 0.509968
v -0.734996 0.794959 0.539975
v -0.434975 0.194969 -0.404968
v -0.299969 0.179992 0.089970
v -0.254984 -0.000000 -0.989980
v -0.554952 -0.000000 -0.524997
v -0.569982 0.074992 -0.344953
v -0.569982 0.074992 -0.344953
v -0.554952 -0.000000 -0.524997
v -0.569982 -0.074992 -0.344953
v -0.299969 0.000000 1.199979
v -0.734996 0.794959 0.539975
v -0.689959 0.794959 0.539975
v -0.434975 0.194969 -0.404968
v -0.254984 0.224976 -0.404968
v -0.254984 0.224976 -0.404968
v -0.254984 0.179992 0.089970
v -0.299969 0.179992 0.089970
v -0.254984 0.000000 1.199979
v -0.299969 0.000000 1.199979
v -0.689959 0.794959 0.539975
v -0.734996 0.794959 0.539975
v -0.254984 0.179992 0.089970
v -0.299969 0.179992 0.089970
v -1.139964 -0.000000 -0.869951
v -1.139964 0.044985 -0.389990
v -1.139964 -0.044985 -0.389990
v 1.139964 0.044985 -0.389990
v 1.139964 -0.044985 -0.389990
v 0.569982 0.074992 -0.344953
v 0.569982 -0.074992 -0.344953
v -1.139964 0.044985 -0.389990
v -0.569982 0.074992 -0.344953
v -1.139964 -0.044985 -0.389990
v -0.569982 -0.074992 -0.344953
vn -0.0000 -0.9871 0.1601
vn 0.0788 -0.0000 -0.9969
vn -0.0000 0.5905 0.8070
vn -0.0000 0.9871 0.1601
vn 0.0721 0.9970 0.0279
vn 0.1002 0.9906 -0.0928
vn 0.0429 0.9880 0.1481
vn -0.1050 0.9875 0.1176
vn -0.1503 0.9777 0.1466
vn -0.0593 0.9943 0.0883
vn -0.0721 0.9970 0.0279
vn -0.0429 0.9880 0.1481
vn -0.1002 0.9906 -0.0928
vn 1.0000 -0.0000 -0.0000
vn 0.1050 0.9875 0.1176
vn 0.0593 0.9943 0.0883
vn 0.1503 0.9777 0.1466
vn -0.0000 -0.5905 0.8070
vn 0.5410 0.8204 -0.1852
vn 0.4135 0.8180 -0.3999
vn 0.1538 0.9223 -0.3547
vn 0.6735 0.6410 -0.3681
vn 0.6896 0.7134 -0.1248
vn 0.4873 0.8646 0.1224
vn 0.4029 0.9040 0.1428
vn -0.4873 -0.8646 0.1224
vn -0.4029 -0.9040 0.1428
vn -0.5410 -0.8204 -0.1852
vn -0.6896 -0.7134 -0.1248
vn -0.6735 -0.6410 -0.3681
vn -0.4135 -0.8180 -0.3999
vn 0.7083 -0.6835 0.1765
vn 0.7167 -0.6672 0.2031
vn 0.6991 -0.6991 0.1498
vn 0.4135 -0.8180 -0.3999
vn 0.5410 -0.8204 -0.1852
vn 0.1538 -0.9223 -0.3547
vn 0.6735 -0.6410 -0.3681
vn 0.6896 -0.7134 -0.1248
vn 0.4873 -0.8646 0.1224
vn 0.4029 -0.9040 0.1428
vn 0.1101 -0.8254 -0.5537
vn 0.1100 -0.8254 -0.5537
vn -0.0788 -0.0000 -0.9969
vn -0.7083 -0.6835 0.1765
vn -0.6991 -0.6991 0.1498
vn -0.7167 -0.6672 0.2031
vn 0.8401 0.5347 0.0914
vn 0.8268 0.5512 0.1121
vn 0.7870 0.5250 0.3241
vn 0.8215 0.5604 -0.1049
vn 0.8526 0.5178 0.0706
vn 0.8599 0.4485 0.2436
vn -0.1101 0.8254 -0.5537
vn -0.1100 0.8254 -0.5537
vn 0.0721 -0.9970 0.0279
vn 0.1002 -0.9906 -0.0928
vn 0.0429 -0.9880 0.1481
vn -1.0000 -0.0000 -0.0000
vn -0.0721 -0.9970 0.0279
vn -0.0429 -0.9880 0.1481
vn -0.1002 -0.9906 -0.0928
vn 0.1050 -0.9875 0.1176
vn 0.1503 -0.9777 0.1466
vn 0.0593 -0.9943 0.0883
vn 0.1100 0.8254 -0.5537
vn 0.1101 0.8254 -0.5537
vn -0.1050 -0.9875 0.1176
vn -0.1503 -0.9777 0.1466
vn -0.0593 -0.9943 0.0883
vn -0.8401 0.5347 0.0914
vn -0.8526 0.5178 0.0706
vn -0.8599 0.4485 0.2436
vn -0.8215 0.5604 -0.1049
vn -0.8268 0.5512 0.1121
vn -0.7870 0.5250 0.3241
vn -0.0000 -0.0000 -1.0000
vn 0.2438 0.9240 0.2945
vn -0.0000 0.9506 0.3103
vn 0.4723 0.8337 0.2861
vn -0.2438 0.9240 0.2945
vn -0.4723 0.8337 0.2861
vn 0.9977 -0.0661 -0.0178
vn 0.9977 -0.0661 -0.0179
vn 0.9702 -0.0000 -0.2425
vn 0.9697 -0.1286 0.2077
vn -0.1100 -0.8254 -0.5537
vn -0.1101 -0.8254 -0.5537
vn -0.9977 -0.0661 -0.0179
vn -0.9977 -0.0661 -0.0178
vn -0.9702 -0.0000 -0.2425
vn -0.9697 -0.1286 0.2077
vn -0.4135 0.8180 -0.3999
vn -0.5410 0.8204 -0.1852
vn -0.1538 0.9223 -0.3547
vn -0.6735 0.6410 -0.3681
vn -0.6896 0.7134 -0.1248
vn -0.4873 0.8646 0.1224
vn -0.4029 0.9040 0.1428
vn -0.0000 0.9831 0.1830
vn -0.0000 0.9832 0.1827
vn -0.0000 0.9930 -0.1182
vn -0.0000 0.8838 0.4679
vn -0.0000 1.0000 -0.0000
vn -0.0000 -0.9919 -0.1271
vn 0.8323 -0.5520 0.0502
vn -0.7356 0.6528 0.1809
vn -0.1538 -0.9223 -0.3547
vn -0.8323 -0.5520 0.0502
vn 0.7356 0.6528 0.1809
vn 0.9965 -0.0000 -0.0832
vn -0.8323 0.5520 0.0502
vn 0.7356 -0.6528 0.1809
vn 0.8323 0.5520 0.0502
vn -0.7356 -0.6528 0.1809
vn -0.9965 -0.0000 -0.0832
vt 0.343360 0.507152
vt 0.351538 0.016659
vt 0.351538 0.507152
vt 0.343360 0.016659
vt 0.318767 0.725875
vt 0.351538 0.855984
vt 0.335335 0.855984
vt 0.352328 0.725875
vt 0.863188 0.468727
vt 0.855862 0.968735
vt 0.855528 0.468727
vt 0.863492 0.968735
vt 0.169020 0.281802
vt 0.272864 0.341445
vt 0.169020 0.069675
vt 0.169020 0.414342
vt 0.296880 0.321564
vt 0.190330 0.719248
vt 0.190330 0.586676
vt 0.294174 0.699366
vt 0.086486 0.659574
vt 0.190330 0.931343
vt 0.454409 0.725631
vt 0.358073 0.725631
vt 0.406226 0.984360
vt 0.444772 0.506696
vt 0.367710 0.506696
vt 0.406226 0.015777
vt 0.062440 0.679455
vt 0.065176 0.301683
vt 0.887112 0.031220
vt 0.894439 0.531228
vt 0.886778 0.531228
vt 0.894743 0.031220
vt 0.007782 0.984360
vt 0.015990 0.493897
vt 0.007782 0.493897
vt 0.015990 0.984360
vt 0.040583 0.275174
vt 0.007782 0.016659
vt 0.007782 0.275174
vt 0.062440 0.222128
vt 0.654072 0.662918
vt 0.694472 0.570139
vt 0.694472 0.967792
vt 0.654072 0.570139
vt 0.351538 0.984360
vt 0.351538 0.725875
vt 0.296880 0.778891
vt 0.984360 0.773419
vt 0.964904 0.289037
vt 0.953109 0.749981
vt 0.972565 0.289037
vt 0.689639 0.358043
vt 0.649268 0.450822
vt 0.689639 0.450822
vt 0.649268 0.053168
vt 0.734842 0.609901
vt 0.752140 0.609901
vt 0.726179 0.722561
vt 0.723291 0.053168
vt 0.765607 0.226536
vt 0.781141 0.710918
vt 0.773510 0.710918
vt 0.796857 0.249974
vt 0.608898 0.411059
vt 0.620419 0.967792
vt 0.591601 0.411059
vt 0.617531 0.298400
vt 0.530863 0.359350
vt 0.585551 0.450791
vt 0.547309 0.359350
vt 0.492560 0.450791
vt 0.476935 0.298369
vt 0.468727 0.053108
vt 0.490584 0.411029
vt 0.460549 0.298369
vt 0.446870 0.411029
vt 0.616224 0.108617
vt 0.495113 0.029092
vt 0.616224 0.029092
vt 0.616224 0.201426
vt 0.614248 0.220881
vt 0.493107 0.141357
vt 0.493107 0.220881
vt 0.493107 0.048548
vt 0.457814 0.411029
vt 0.479671 0.411029
vt 0.468727 0.967792
vt 0.539010 0.278610
vt 0.539010 0.967792
vt 0.785153 0.070283
vt 0.996094 0.046845
vt 0.753903 0.929672
vt 0.964844 0.953109
s 0
usemtl FO_Enemy_A_n_mat.001
f 119/1/1 120/2/1 118/3/1
f 121/4/1 120/2/1 119/1/1
f 214/5/2 215/6/2 213/7/2
f 216/8/2 215/6/2 214/5/2
f 123/9/3 124/10/3 122/11/3
f 125/12/3 124/10/3 123/9/3
f 200/2/4 199/1/4 201/4/4
f 198/3/4 199/1/4 200/2/4
s 1
f 133/13/5 134/14/5 132/15/6
f 135/16/7 134/14/5 133/13/5
f 178/17/8 177/18/8 179/19/9
f 176/20/10 177/18/8 178/17/8
f 174/18/11 173/21/11 175/19/12
f 172/22/13 173/21/11 174/18/11
s 0
f 170/23/14 169/24/14 171/25/14
f 164/26/14 169/24/14 170/23/14
f 164/26/14 163/27/14 169/24/14
f 165/28/14 163/27/14 164/26/14
s 1
f 137/29/15 138/13/15 136/30/16
f 139/16/17 138/13/15 137/29/15
s 0
f 160/31/18 161/32/18 159/33/18
f 162/34/18 161/32/18 160/31/18
f 156/35/4 157/36/4 155/37/4
f 158/38/4 157/36/4 156/35/4
s 1
f 142/39/19 147/40/20 154/41/21
f 146/42/22 147/40/20 142/39/19
f 142/39/19 148/30/23 146/42/22
f 141/29/24 148/30/23 142/39/19
f 140/36/25 141/29/24 142/39/19
f 149/38/25 141/29/24 140/36/25
s 0
f 204/10/18 203/9/18 205/12/18
f 202/11/18 203/9/18 204/10/18
s 1
f 61/29/26 60/36/27 69/38/27
f 62/39/28 60/36/27 61/29/26
f 68/30/29 62/39/28 61/29/26
f 66/42/30 62/39/28 68/30/29
f 66/42/30 67/40/31 62/39/28
f 29/43/32 27/44/32 28/45/33
f 30/46/34 27/44/32 29/43/32
f 106/47/35 101/5/36 117/48/37
f 107/49/38 101/5/36 106/47/35
f 107/49/38 108/20/39 101/5/36
f 102/17/40 101/5/36 108/20/39
f 100/1/41 101/5/36 102/17/40
s 0
f 115/50/42 114/51/42 116/52/42
f 113/53/43 114/51/43 115/50/43
f 211/5/44 210/6/44 212/8/44
f 209/7/44 210/6/44 211/5/44
s 1
f 25/54/45 24/55/45 26/56/46
f 23/57/47 24/55/45 25/54/45
f 13/58/48 15/59/49 14/60/50
f 32/61/51 15/59/49 13/58/48
f 13/58/48 12/44/52 32/61/51
f 11/45/53 12/44/52 13/58/48
s 0
f 195/50/54 194/51/54 196/52/54
f 193/53/55 194/51/55 195/50/55
s 1
f 93/21/56 94/18/56 92/22/57
f 95/19/58 94/18/56 93/21/56
s 0
f 83/27/59 84/26/59 85/28/59
f 89/24/59 84/26/59 83/27/59
f 89/24/59 90/23/59 84/26/59
f 91/25/59 90/23/59 89/24/59
f 80/31/3 81/32/3 79/33/3
f 82/34/3 81/32/3 80/31/3
f 76/35/1 77/36/1 75/37/1
f 78/38/1 77/36/1 76/35/1
s 1
f 54/14/60 53/13/60 55/16/61
f 52/15/62 53/13/60 54/14/60
f 98/17/63 97/18/63 99/19/64
f 96/20/65 97/18/63 98/17/63
s 0
f 151/62/66 152/63/66 150/64/66
f 153/65/67 152/63/67 151/62/67
s 1
f 58/13/68 57/29/68 59/16/69
f 56/30/70 57/29/68 58/13/68
f 16/66/71 17/55/72 18/57/73
f 36/67/74 17/55/72 16/66/71
f 16/66/71 21/68/75 36/67/74
f 20/69/76 21/68/75 16/66/71
s 0
f 47/70/77 46/71/77 48/72/77
f 45/73/77 46/71/77 47/70/77
s 1
f 2/74/78 1/75/79 22/76/80
f 3/77/81 1/75/79 2/74/78
f 3/77/81 19/78/82 1/75/79
f 41/79/83 42/80/84 40/81/85
f 43/82/86 42/80/84 41/79/83
s 0
f 71/62/87 72/63/87 70/64/87
f 73/65/88 72/63/88 71/62/88
s 1
f 39/83/89 37/84/90 38/85/91
f 44/86/92 37/84/90 39/83/89
f 186/47/93 181/5/94 197/48/95
f 187/49/96 181/5/94 186/47/93
f 187/49/96 188/20/97 181/5/94
f 182/17/98 181/5/94 188/20/97
f 180/1/99 181/5/94 182/17/98
f 6/87/100 7/88/101 31/89/102
f 5/74/103 7/88/101 6/87/100
f 5/74/103 6/87/100 4/77/103
s 0
f 8/70/104 9/72/104 10/90/104
f 34/73/105 35/91/105 33/71/105
f 49/33/106 50/92/106 51/31/106
f 64/34/107 65/93/107 63/32/107
s 1
f 62/39/28 67/40/31 74/41/108
s 0
f 87/10/109 88/94/109 86/11/109
f 103/9/110 104/95/110 105/12/110
f 110/49/111 111/20/111 109/20/111
s 1
f 102/17/40 112/4/41 100/1/41
s 0
f 127/18/59 128/18/59 126/22/59
f 129/33/112 130/92/112 131/31/112
f 144/34/113 145/93/113 143/32/113
f 166/11/114 167/10/114 168/94/114
f 184/95/115 185/12/115 183/9/115
f 189/20/116 190/49/116 191/20/116
s 1
f 192/4/99 180/1/99 182/17/98
s 0
f 206/22/14 207/18/14 208/18/14
